# xmcd
#
# Track frame offsets:
#	150
#	15430
#	30067
#	45130
#	59820
#	74290
#	88200
#	104197
#	119515
#	133347
#	148097
#	160857
#	175050
#	189377
#	204302
#	217577
#	231967
#	246215
#	260245
#	276295
#
# Disc length: 3865 seconds
#
# Revision: 0
# Processed by: cddbd v1.4PL0 Copyright (c) Steve Scherf et al.
# Submitted via: EasyCDDAExtractor 4.6.0.1
#
DISCID=260f1714
DTITLE=Mississippi Sheiks - Volume 1
DYEAR=1900
DGENRE=Blues
TTITLE0=Driving That Thing
TTITLE1=Alberta Blues
TTITLE2=Winter Time Blues
TTITLE3=The Sheik Waltz
TTITLE4=The Jazz Fiddler (take B)
TTITLE5=Sitting On Top Of The World
TTITLE6=Stop And Listen Blues
TTITLE7=Lonely One In This Town
TTITLE8=We Are Both Feeling Good Right Now
TTITLE9=Cracking Them Things
TTITLE10=Grinding Old Fool
TTITLE11=Jake Leg Blues
TTITLE12=Back To Mississippi
TTITLE13=West Jackson Blues
TTITLE14=Jail Bird Love Song
TTITLE15=Yodeling Fiddling Blues
TTITLE16=Baby Keeps Stealin' Lovin' On Me
TTITLE17=River Bottom Blues
TTITLE18=Bootleggers' Blues
TTITLE19=Loose Like That
EXTD=
EXTT0=
EXTT1=
EXTT2=
EXTT3=
EXTT4=
EXTT5=
EXTT6=
EXTT7=
EXTT8=
EXTT9=
EXTT10=
EXTT11=
EXTT12=
EXTT13=
EXTT14=
EXTT15=
EXTT16=
EXTT17=
EXTT18=
EXTT19=
PLAYORDER=
